<!-- Gavagai mark — the sitting hare with a question-mark face (Quine's gavagai).
     Canonical source: repo_workspace/resources/logo.html / repo_workspace/resources/rabbit.svg. This is a reference
     copy for the report framework. In a report the mark is INLINED as a <symbol
     id="rabbit"> (body uses currentColor so CSS can colour it) and referenced with
     <use href="#rabbit"/>. See the html-report skill. -->
<svg xmlns="http://www.w3.org/2000/svg" viewBox="0 0 400 400" width="400" height="400">
  <g transform="translate(0,400) scale(0.1,-0.1)">
    <path fill="#111111" fill-rule="evenodd" d="M3402 3873 c-80 -39 -195 -179 -271 -330 -23 -46 -45 -83 -49 -83 -4
0 -32 28 -62 63 -122 139 -300 269 -451 327 -97 37 -123 38 -158 3 -79 -79
-105 -422 -48 -645 44 -179 120 -357 213 -500 43 -67 74 -122 74 -132 0 -3
-30 -39 -67 -78 -36 -40 -90 -110 -120 -155 -61 -95 -63 -96 -178 -63 -498
143 -1072 20 -1410 -301 -204 -194 -322 -423 -380 -734 -24 -129 -40 -169 -74
-180 -66 -21 -113 -180 -93 -315 20 -139 68 -212 175 -266 64 -33 63 -31 70
-109 14 -153 89 -220 287 -256 180 -33 1426 -11 1518 27 62 25 69 125 14 214
-30 49 -31 50 -11 61 11 5 32 9 47 7 28 -3 32 -9 77 -110 72 -160 235 -233
472 -211 71 7 123 17 145 29 27 14 59 18 173 19 262 3 329 43 309 183 -19 133
-86 207 -231 253 -37 12 -69 23 -71 24 -2 1 13 41 32 87 47 112 70 202 101
382 14 82 39 208 55 280 16 72 34 171 41 219 14 104 13 103 134 110 120 6 196
35 255 96 73 74 84 138 51 296 -45 221 -145 378 -331 527 l-45 35 13 44 c60
212 77 356 62 539 -16 193 -38 303 -97 488 -52 162 -89 196 -171 155z m-808
-139 c376 -194 616 -569 616 -962 0 -96 -1 -95 120 -128 328 -87 560 -372 560
-685 0 -127 -113 -183 -350 -176 -107 3 -155 -18 -120 -53 25 -25 26 -86 5
-220 -72 -446 -256 -769 -508 -891 -45 -21 -88 -39 -97 -39 -28 0 -59 -28 -53
-49 8 -33 36 -49 121 -74 135 -39 202 -102 202 -190 0 -51 -15 -57 -147 -64
-212 -11 -286 28 -368 192 -41 82 -56 103 -87 120 l-37 20 -116 -24 c-121 -25
-274 -26 -298 -2 -7 7 -3 40 14 113 35 150 33 330 -4 443 -127 383 -518 581
-962 485 -103 -22 -103 -45 0 -29 400 63 793 -155 880 -486 38 -147 13 -310
-75 -485 -58 -116 -68 -106 100 -113 178 -8 313 -73 335 -160 11 -41 -2 -48
-112 -58 -164 -16 -1250 -23 -1330 -9 -203 35 -278 161 -173 292 l31 38 -54 0
c-173 0 -270 101 -268 281 1 102 24 149 92 185 48 26 54 33 57 64 44 580 379
989 927 1130 288 74 523 61 891 -51 50 -15 70 -8 92 32 83 151 196 287 279
336 l42 24 -90 136 c-244 373 -337 731 -263 1016 25 97 35 100 148 41z m874
-1 c29 -70 79 -272 96 -394 29 -198 16 -427 -32 -569 -26 -75 -35 -79 -127
-50 -100 31 -96 26 -110 155 -11 107 -58 280 -103 379 l-40 90 24 65 c49 131
151 286 227 346 42 33 41 33 65 -22z m-248 -3046 c-55 -121 -46 -137 105 -182
134 -40 203 -120 181 -209 -7 -29 -27 -34 -161 -42 -135 -7 -145 -2 -181 100
-21 60 -72 119 -136 155 l-48 28 68 46 c37 25 96 75 132 111 36 35 66 63 68
62 1 -2 -11 -33 -28 -69z"/>
  </g>
  <g transform="translate(0,400) scale(0.1,-0.1)">
    <path fill="#e30613" fill-rule="evenodd" d="M2975 2466 c-189 -36 -405 -189 -430 -303 -15 -71 65 -167 122 -147
34 13 84 69 134 150 89 148 168 198 309 198 321 -1 440 -313 177 -463 -29 -16
-117 -52 -197 -81 -212 -76 -284 -117 -329 -190 -29 -48 -30 -190 -1 -281 35
-114 132 -239 185 -239 76 0 89 35 91 243 1 165 2 168 32 230 65 130 223 250
394 297 89 24 246 100 293 142 73 64 66 142 -20 213 -200 164 -552 271 -760
231z M2920 991 c-137 -44 -163 -180 -51 -271 48 -40 85 -39 125 3 81 87
112 227 56 254 -36 17 -100 24 -130 14z"/>
  </g>
</svg>
